<svg width="32" height="37" viewBox="0 0 32 37" fill="none" xmlns="http://www.w3.org/2000/svg">
<path d="M5.84211 9.73684C5.84211 4.35933 10.2014 0 15.5789 0C20.9565 0 25.3158 4.35933 25.3158 9.73684C25.3158 15.1144 20.9565 19.4737 15.5789 19.4737C10.2014 19.4737 5.84211 15.1144 5.84211 9.73684ZM15.5789 15.5789C18.8055 15.5789 21.4211 12.9633 21.4211 9.73684C21.4211 6.51034 18.8055 3.89474 15.5789 3.89474C12.3524 3.89474 9.73684 6.51034 9.73684 9.73684C9.73684 12.9633 12.3524 15.5789 15.5789 15.5789Z" fill="black"/>
<path d="M4.56297 25.984C1.64135 28.9056 0 32.8682 0 37H3.89474C3.89474 33.9012 5.12575 30.9292 7.31696 28.738C9.50818 26.5468 12.4801 25.3158 15.5789 25.3158C18.6778 25.3158 21.6497 26.5468 23.8409 28.738C26.0321 30.9292 27.2632 33.9012 27.2632 37H31.1579C31.1579 32.8682 29.5165 28.9056 26.5949 25.984C23.6733 23.0624 19.7107 21.4211 15.5789 21.4211C11.4472 21.4211 7.48459 23.0624 4.56297 25.984Z" fill="black"/>
</svg>
