<svg width="38" height="37" viewBox="0 0 38 37" fill="none" xmlns="http://www.w3.org/2000/svg">
<path d="M10.5054 30.4807L11.8487 31.1989C13.9305 32.3118 16.2553 32.8924 18.6159 32.8889L18.6221 32.8889C26.5691 32.8889 33.011 26.447 33.011 18.5C33.011 10.5529 26.5691 4.11111 18.6221 4.11111C10.675 4.11111 4.2332 10.553 4.2332 18.5V18.5062C4.22964 20.8668 4.81023 23.1916 5.92319 25.2733L6.64137 26.6167L5.53709 31.585L10.5054 30.4807ZM0.122091 37L2.29769 27.2116C0.864925 24.5317 0.117516 21.5389 0.122091 18.5C0.122091 8.28245 8.40454 0 18.6221 0C28.8396 0 37.1221 8.28245 37.1221 18.5C37.1221 28.7175 28.8396 37 18.6221 37C15.5832 37.0046 12.5904 36.2571 9.91044 34.8244L0.122091 37Z" fill="black"/>
</svg>
