<svg width="65" height="74" viewBox="0 0 65 74" fill="none" xmlns="http://www.w3.org/2000/svg">
<path d="M13.5 63L20 67L33.5 70.5L61 54L60.5 19.5L32.5 3L2.5 18.5L2 53.5L13.5 63Z" fill="white"/>
<path d="M32.4384 73.8627C31.431 73.8627 30.4907 73.5913 29.6176 73.1163L20.6853 67.7555C19.3421 67.0091 20.0137 66.7377 20.4167 66.602C22.23 65.9913 22.5658 65.8555 24.4463 64.7698C24.6478 64.6341 24.9164 64.702 25.1179 64.8377L31.9682 68.977C32.2369 69.1127 32.5727 69.1127 32.7742 68.977L59.5711 53.3019C59.8397 53.1662 59.974 52.8948 59.974 52.5555V21.2733C59.974 20.934 59.8397 20.6626 59.5711 20.5268L32.7742 4.91966C32.5055 4.78394 32.1697 4.78394 31.9682 4.91966L5.17133 20.5268C4.90269 20.6626 4.76837 21.0018 4.76837 21.2733V52.5555C4.76837 52.8269 4.90269 53.1662 5.17133 53.3019L12.4918 57.5769C16.4542 59.6127 18.9392 57.2377 18.9392 54.8626V23.9876C18.9392 23.5804 19.275 23.1733 19.7451 23.1733H23.1703C23.5732 23.1733 23.9762 23.5126 23.9762 23.9876V54.8626C23.9762 60.2234 21.0883 63.3448 16.0513 63.3448C14.5066 63.3448 13.2977 63.3448 9.87254 61.6484L2.82073 57.5769C1.07456 56.5591 0 54.6591 0 52.6234V21.3411C0 19.3054 1.07456 17.4054 2.82073 16.3875L29.6176 0.712502C31.2966 -0.237501 33.5801 -0.237501 35.2591 0.712502L62.056 16.3875C63.8021 17.4054 64.8767 19.3054 64.8767 21.3411V52.6234C64.8767 54.6591 63.8021 56.5591 62.056 57.5769L35.2591 73.252C34.386 73.6591 33.3786 73.8627 32.4384 73.8627ZM40.6991 52.3519C28.946 52.3519 26.5283 46.9233 26.5283 42.309C26.5283 41.9019 26.8641 41.4948 27.3342 41.4948H30.8265C31.2295 41.4948 31.5653 41.7662 31.5653 42.1733C32.1026 45.7698 33.6472 47.5341 40.7662 47.5341C46.4077 47.5341 48.8254 46.2448 48.8254 43.1912C48.8254 41.4269 48.1538 40.1376 39.3559 39.2555C32.0354 38.509 27.4685 36.8805 27.4685 30.9769C27.4685 25.4804 32.0354 22.2233 39.6917 22.2233C48.2882 22.2233 52.5192 25.209 53.0565 31.7233C53.0565 31.9269 52.9894 32.1304 52.855 32.334C52.7207 32.4697 52.5192 32.6054 52.3178 32.6054H48.8254C48.4896 32.6054 48.1538 32.334 48.0867 31.9947C47.2807 28.2626 45.1988 27.0411 39.6917 27.0411C33.5129 27.0411 32.7742 29.2126 32.7742 30.8412C32.7742 32.809 33.6472 33.4197 41.9751 34.5055C50.2358 35.5912 54.1311 37.1519 54.1311 42.9876C54.0639 48.9591 49.2284 52.3519 40.6991 52.3519Z" fill="url(#paint0_linear_2648_2089)"/>
<defs>
<linearGradient id="paint0_linear_2648_2089" x1="32.4384" y1="0" x2="32.4384" y2="73.8627" gradientUnits="userSpaceOnUse">
<stop stop-color="#6FD55A"/>
<stop offset="1" stop-color="#61BC4D"/>
</linearGradient>
</defs>
</svg>
